<svg xmlns="http://www.w3.org/2000/svg" viewBox="0 0 512 512" width="512" height="512">
  <defs>
    <linearGradient id="bg" x1="0%" y1="0%" x2="100%" y2="100%">
      <stop offset="0%" stop-color="#4f46e5"/>
      <stop offset="100%" stop-color="#7c3aed"/>
    </linearGradient>
    <linearGradient id="shine" x1="0%" y1="0%" x2="100%" y2="100%">
      <stop offset="0%" stop-color="#ffffff" stop-opacity="0.2"/>
      <stop offset="100%" stop-color="#ffffff" stop-opacity="0"/>
    </linearGradient>
  </defs>
  <rect width="512" height="512" rx="100" fill="url(#bg)"/>
  <rect width="512" height="512" rx="100" fill="url(#shine)"/>
  <!-- Shield shape -->
  <path d="M256 96 L160 136 L160 248 C160 316 206 376 256 400 C306 376 352 316 352 248 L352 136 Z" fill="none" stroke="rgba(255,255,255,0.9)" stroke-width="18" stroke-linejoin="round"/>
  <!-- Crown inside shield -->
  <path d="M196 220 L216 180 L236 210 L256 168 L276 210 L296 180 L316 220 L316 256 L196 256 Z" fill="rgba(255,255,255,0.95)" stroke="none"/>
  <rect x="192" y="256" width="128" height="20" rx="4" fill="rgba(255,255,255,0.85)"/>
  <!-- KW text -->
  <text x="256" y="340" text-anchor="middle" font-family="Arial,sans-serif" font-size="36" font-weight="900" fill="rgba(255,255,255,0.7)">ADMIN</text>
</svg>
